<svg width="180" height="44" viewBox="0 0 180 44" fill="none" xmlns="http://www.w3.org/2000/svg">
  <path d="M114.866 25.2021C114.311 25.945 113.581 26.497 112.674 26.8573C111.768 27.2175 110.835 27.3983 109.875 27.3983C109.257 27.3983 108.644 27.3191 108.036 27.16C107.428 27.0008 106.874 26.736 106.373 26.3642C105.871 25.9931 105.466 25.5157 105.157 24.9319C104.847 24.3488 104.693 23.6324 104.693 22.7831C104.693 21.1917 105.253 19.9185 106.373 18.9636C107.492 18.0088 109.107 17.5313 111.22 17.5313C111.561 17.5313 111.923 17.5422 112.307 17.5632C112.691 17.5848 113.053 17.6058 113.395 17.6268C113.736 17.6485 114.035 17.6695 114.291 17.6905C114.547 17.7121 114.728 17.7331 114.835 17.7541V17.213C114.835 16.1099 114.498 15.3195 113.827 14.8414C113.155 14.364 112.243 14.1256 111.092 14.1256C109.94 14.1256 109.065 14.28 108.404 14.5868C107.743 14.8949 107.189 15.2078 106.741 15.5254L105.397 13.5838C105.653 13.3719 105.962 13.1599 106.325 12.9473C106.687 12.7353 107.114 12.5389 107.605 12.3588C108.095 12.1786 108.649 12.0303 109.268 11.9132C109.886 11.7967 110.601 11.7384 111.412 11.7384C113.331 11.7384 114.839 12.1996 115.938 13.1227C117.036 14.0457 117.586 15.3561 117.586 17.0532V26.2362C117.586 26.4381 117.596 26.6873 117.618 26.9839H114.931L114.867 25.2015H114.866V25.2021ZM114.834 19.9822C114.748 19.9612 114.583 19.9341 114.338 19.9023C114.092 19.8704 113.81 19.844 113.49 19.823C113.17 19.802 112.828 19.781 112.466 19.7594C112.103 19.7384 111.751 19.7275 111.41 19.7275C110.599 19.7275 109.943 19.823 109.442 20.014C108.941 20.205 108.547 20.444 108.259 20.7305C107.971 21.017 107.773 21.3352 107.667 21.6854C107.56 22.0355 107.507 22.3693 107.507 22.6876C107.507 23.4942 107.784 24.1044 108.338 24.5182C108.892 24.9319 109.66 25.1392 110.642 25.1392C111.196 25.1392 111.724 25.0437 112.225 24.8527C112.726 24.6617 113.169 24.4071 113.552 24.0888C113.936 23.7705 114.245 23.3994 114.48 22.9748C114.714 22.5508 114.832 22.1154 114.832 21.6698V19.9828H114.834V19.9822Z" fill="#F1F1F1"/>
  <path d="M120.88 26.9831V13.1057C120.88 12.9147 120.869 12.6072 120.848 12.1826H123.599L123.695 14.5698C123.865 14.3152 124.089 14.0341 124.367 13.726C124.644 13.4185 124.979 13.1368 125.374 12.8822C125.768 12.6275 126.227 12.4102 126.75 12.2293C127.272 12.0492 127.874 11.9591 128.558 11.9591C128.877 11.9591 129.17 11.9808 129.437 12.0228C129.703 12.0655 129.954 12.1291 130.188 12.2138L129.549 14.8874C129.165 14.7391 128.674 14.6646 128.077 14.6646C127.48 14.6646 126.888 14.7818 126.366 15.0147C125.843 15.2484 125.39 15.5721 125.006 15.9859C124.622 16.3996 124.318 16.8825 124.094 17.4337C123.87 17.9857 123.759 18.5694 123.759 19.1843V26.9825H120.88V26.9831Z" fill="#F1F1F1"/>
  <path d="M131.886 26.9831V13.1057C131.886 12.9147 131.875 12.6072 131.854 12.1826H134.605L134.701 14.5698C134.871 14.3152 135.095 14.0341 135.373 13.726C135.65 13.4185 135.985 13.1368 136.38 12.8822C136.774 12.6275 137.233 12.4102 137.756 12.2293C138.278 12.0492 138.88 11.9591 139.563 11.9591C139.883 11.9591 140.176 11.9808 140.443 12.0228C140.709 12.0655 140.959 12.1291 141.194 12.2138L140.554 14.8874C140.171 14.7391 139.68 14.6646 139.083 14.6646C138.486 14.6646 137.894 14.7818 137.372 15.0147C136.849 15.2484 136.396 15.5721 136.012 15.9859C135.628 16.3996 135.324 16.8825 135.1 17.4337C134.876 17.9857 134.765 18.5694 134.765 19.1843V26.9825H131.886V26.9831Z" fill="#F1F1F1"/>
  <path d="M149.257 27.4289C148.105 27.4289 147.049 27.2216 146.089 26.8079C145.13 26.3941 144.303 25.8266 143.61 25.1047C142.917 24.3834 142.373 23.5505 141.979 22.6058C141.584 21.6617 141.387 20.6486 141.387 19.5664C141.387 18.4842 141.583 17.4711 141.979 16.5264C142.373 15.5824 142.917 14.7494 143.61 14.0275C144.303 13.3062 145.13 12.7381 146.089 12.3243C147.049 11.9105 148.105 11.7033 149.257 11.7033C150.408 11.7033 151.432 11.9105 152.392 12.3243C153.351 12.7381 154.183 13.3062 154.887 14.0275C155.591 14.7494 156.139 15.5824 156.535 16.5264C156.929 17.4711 157.127 18.4835 157.127 19.5664C157.127 20.6493 156.93 21.6624 156.535 22.6058C156.14 23.5505 155.592 24.3834 154.887 25.1047C154.183 25.8266 153.351 26.3941 152.392 26.8079C151.432 27.2216 150.386 27.4289 149.257 27.4289ZM149.257 24.9462C150.024 24.9462 150.717 24.7925 151.336 24.485C151.954 24.1776 152.477 23.7746 152.904 23.2755C153.33 22.7771 153.655 22.2042 153.879 21.5567C154.103 20.91 154.215 20.247 154.215 19.5671C154.215 18.8872 154.103 18.2574 153.879 17.6093C153.655 16.9625 153.324 16.3842 152.887 15.8749C152.45 15.3657 151.928 14.9573 151.32 14.6492C150.712 14.3417 150.024 14.188 149.256 14.188C148.488 14.188 147.795 14.3424 147.176 14.6492C146.558 14.9573 146.035 15.3602 145.609 15.8587C145.182 16.3578 144.857 16.9307 144.633 17.5774C144.41 18.2249 144.298 18.8878 144.298 19.5671C144.298 20.2463 144.41 20.9039 144.633 21.5405C144.857 22.1771 145.188 22.75 145.625 23.2593C146.062 23.7685 146.585 24.1776 147.193 24.485C147.801 24.7932 148.488 24.9462 149.256 24.9462H149.257Z" fill="#F1F1F1"/>
  <path d="M157.637 12.1837H160.804L164.131 23.4831L167.714 12.1837H170.177L173.76 23.5786L177.023 12.1837H179.999L175.072 26.9843H172.225L168.77 16.6398L165.347 26.9843H162.659L157.637 12.1837Z" fill="#F1F1F1"/>
  <path d="M169.971 34.5236H168.793V39.1774H169.971V34.5236Z" fill="#F1F1F1"/>
  <path d="M169.357 32.5607H169.407C169.718 32.5607 169.971 32.8113 169.971 33.1214C169.971 33.4309 169.718 33.6815 169.407 33.6815H169.357C169.045 33.6815 168.793 33.4309 168.793 33.1208C168.793 32.8113 169.045 32.5607 169.357 32.5607Z" fill="#F1F1F1"/>
  <path d="M178.568 38.8092C178.566 38.7855 178.538 38.7753 178.521 38.7929C178.396 38.9263 178.217 39.0462 177.984 39.1525C177.725 39.2717 177.436 39.3313 177.117 39.3313C176.923 39.3313 176.733 39.3015 176.543 39.2419C176.353 39.1823 176.18 39.0916 176.023 38.969C175.868 38.8464 175.741 38.6893 175.644 38.497C175.548 38.3053 175.5 38.0798 175.5 37.8218C175.5 37.5638 175.55 37.3207 175.65 37.1121C175.75 36.9035 175.889 36.7288 176.069 36.5859C176.249 36.4437 176.464 36.336 176.718 36.2635C176.97 36.1911 177.25 36.1545 177.556 36.1545C177.649 36.1545 177.752 36.1559 177.865 36.1592C177.978 36.1626 178.087 36.1674 178.194 36.1741C178.314 36.1809 178.437 36.1877 178.563 36.1938V36.0848C178.563 35.8531 178.47 35.671 178.283 35.5389C178.097 35.4069 177.854 35.3405 177.555 35.3405C177.222 35.3405 176.956 35.3838 176.757 35.4692C176.557 35.5552 176.381 35.648 176.228 35.7475L175.689 34.9531C175.782 34.8868 175.889 34.819 176.008 34.75C176.128 34.6802 176.268 34.6172 176.428 34.561C176.588 34.5048 176.772 34.4588 176.982 34.4222C177.191 34.3856 177.436 34.3673 177.716 34.3673C178.015 34.3673 178.286 34.4086 178.529 34.4913C178.772 34.5739 178.98 34.6897 179.152 34.8387C179.325 34.9877 179.458 35.1665 179.551 35.3744C179.645 35.5829 179.691 35.8098 179.691 36.0543V39.1769H178.594L178.568 38.8078V38.8092ZM178.564 37.0776C178.444 37.0708 178.327 37.064 178.214 37.0579C178.121 37.0511 178.023 37.0464 177.92 37.043C177.817 37.0396 177.729 37.0383 177.656 37.0383C177.277 37.0383 177.01 37.1128 176.857 37.2618C176.704 37.4107 176.628 37.5807 176.628 37.7731C176.628 37.9654 176.699 38.1272 176.842 38.2397C177.012 38.3731 177.279 38.4272 177.641 38.4022C177.873 38.3595 178.067 38.2749 178.224 38.1503C178.323 38.071 178.405 37.9782 178.468 37.8726C178.532 37.767 178.563 37.6539 178.563 37.5347V37.0782H178.564V37.0776Z" fill="#F1F1F1"/>
  <path d="M143.766 32.5607H145.033L148.256 37.2667V32.5607H149.483V39.1784H148.246L144.993 34.4169V39.1784H143.766V32.5607Z" fill="#F1F1F1"/>
  <path d="M154.854 38.5065C154.834 38.5261 154.779 38.581 154.689 38.6704C154.599 38.7598 154.469 38.8539 154.3 38.9534C154.131 39.053 153.914 39.1417 153.651 39.2216C153.389 39.3008 153.074 39.3408 152.709 39.3408C152.343 39.3408 151.997 39.2778 151.691 39.1525C151.385 39.0266 151.124 38.8532 150.908 38.6311C150.691 38.4096 150.525 38.1428 150.409 37.832C150.292 37.5211 150.234 37.1771 150.234 36.7992C150.234 36.4552 150.292 36.1355 150.409 35.8416C150.525 35.547 150.688 35.2904 150.897 35.0723C151.107 34.8543 151.356 34.6816 151.645 34.5563C151.935 34.4303 152.256 34.3673 152.609 34.3673C153.034 34.3673 153.395 34.4452 153.691 34.601C153.988 34.7567 154.225 34.9599 154.405 35.2111C154.585 35.4631 154.714 35.7475 154.794 36.0651C154.874 36.3827 154.914 36.7071 154.914 37.0383V37.2069H151.421C151.421 37.3789 151.46 37.5347 151.536 37.6735C151.613 37.8123 151.713 37.9315 151.836 38.0311C151.959 38.1299 152.099 38.2065 152.255 38.2593C152.412 38.3121 152.566 38.3385 152.719 38.3385C152.945 38.3385 153.144 38.3175 153.313 38.2742C153.483 38.2315 153.628 38.1814 153.747 38.1252C153.867 38.069 153.965 38.0094 154.041 37.9464C154.118 37.8834 154.176 37.8326 154.216 37.7927L154.855 38.5072L154.854 38.5065ZM153.706 36.3624C153.706 36.2432 153.683 36.124 153.637 36.0048C153.59 35.8857 153.522 35.778 153.433 35.6818C153.343 35.5863 153.228 35.5064 153.088 35.4434C152.949 35.3805 152.789 35.3493 152.609 35.3493C152.416 35.3493 152.245 35.3811 152.095 35.4434C151.946 35.5064 151.821 35.5856 151.721 35.6818C151.621 35.778 151.545 35.885 151.492 36.0048C151.438 36.124 151.412 36.2432 151.412 36.3624H153.707H153.706Z" fill="#F1F1F1"/>
  <path d="M156.826 32.5607H155.648V39.1784H156.826V32.5607Z" fill="#F1F1F1"/>
  <path d="M157.561 36.8493C157.561 36.5114 157.622 36.1924 157.745 35.8911C157.868 35.5897 158.039 35.327 158.259 35.1014C158.478 34.8766 158.743 34.6978 159.052 34.5658C159.361 34.433 159.702 34.3673 160.075 34.3673C160.448 34.3673 160.788 34.4337 161.098 34.5658C161.407 34.6985 161.672 34.8766 161.892 35.1014C162.111 35.3263 162.282 35.5897 162.406 35.8911C162.529 36.1924 162.59 36.5114 162.59 36.8493C162.59 37.1873 162.529 37.5062 162.406 37.8076C162.282 38.1089 162.111 38.3731 161.892 38.602C161.672 38.8302 161.408 39.011 161.098 39.1431C160.789 39.2758 160.447 39.3415 160.075 39.3415C159.703 39.3415 159.362 39.2751 159.052 39.1431C158.743 39.011 158.478 38.8302 158.259 38.602C158.039 38.3737 157.868 38.1089 157.745 37.8076C157.622 37.5062 157.561 37.1866 157.561 36.8493ZM160.075 38.3284C160.301 38.3284 160.498 38.2837 160.664 38.1943C160.83 38.1049 160.968 37.9871 161.078 37.8414C161.187 37.6958 161.269 37.5374 161.322 37.3647C161.375 37.1927 161.402 37.0207 161.402 36.8487C161.402 36.6766 161.375 36.5128 161.322 36.3374C161.269 36.162 161.187 36.0035 161.078 35.8606C160.968 35.7184 160.83 35.6026 160.664 35.5132C160.498 35.4238 160.301 35.3791 160.075 35.3791C159.849 35.3791 159.652 35.4238 159.486 35.5132C159.32 35.6026 159.182 35.7184 159.072 35.8606C158.963 36.0028 158.881 36.162 158.828 36.3374C158.775 36.5128 158.748 36.6834 158.748 36.8487C158.748 37.0139 158.775 37.1927 158.828 37.3647C158.881 37.5367 158.963 37.6958 159.072 37.8414C159.182 37.9871 159.32 38.1049 159.486 38.1943C159.652 38.2837 159.849 38.3284 160.075 38.3284Z" fill="#F1F1F1"/>
  <path d="M164.156 39.9358C164.342 40.0617 164.543 40.1525 164.76 40.2087C164.975 40.2649 165.23 40.2933 165.523 40.2933C165.815 40.2933 166.085 40.2005 166.291 40.015C166.497 39.8294 166.601 39.5714 166.601 39.2409V38.7344C166.441 38.8671 166.267 38.9748 166.077 39.0574C165.887 39.14 165.636 39.1813 165.323 39.1813C164.984 39.1813 164.683 39.1251 164.42 39.0127C164.157 38.9003 163.933 38.7432 163.747 38.5414C163.56 38.3396 163.419 38.1012 163.323 37.8262C163.226 37.552 163.178 37.2486 163.178 36.9181C163.178 36.5876 163.239 36.2497 163.362 35.9449C163.485 35.6409 163.662 35.3761 163.891 35.1506C164.12 34.9257 164.398 34.7483 164.724 34.6196C165.05 34.4903 165.416 34.4259 165.822 34.4259C166.228 34.4259 166.602 34.4591 166.945 34.5255C167.287 34.5919 167.565 34.6609 167.778 34.7341V39.2612C167.778 39.5856 167.721 39.8734 167.608 40.1247C167.495 40.3766 167.339 40.5879 167.139 40.7599C166.94 40.9319 166.704 41.0626 166.431 41.152C166.158 41.2414 165.862 41.2861 165.542 41.2861C165.296 41.2861 165.078 41.2746 164.889 41.2516C164.7 41.2279 164.53 41.1967 164.38 41.1574C164.23 41.1175 164.094 41.0681 163.971 41.0085C163.848 40.9489 163.733 40.8791 163.626 40.7999L164.155 39.9364L164.156 39.9358ZM166.601 35.5379C166.508 35.5047 166.411 35.4804 166.312 35.4634C166.212 35.4472 166.056 35.4384 165.843 35.4384C165.603 35.4384 165.393 35.4783 165.214 35.5576C165.034 35.6368 164.881 35.7431 164.754 35.8752C164.628 36.0079 164.533 36.1616 164.47 36.337C164.406 36.5124 164.375 36.696 164.375 36.8883C164.375 37.2459 164.465 37.5472 164.645 37.7917C164.824 38.0368 165.114 38.1587 165.512 38.1587C165.872 38.1587 166.143 38.0829 166.326 37.9305C166.509 37.7781 166.6 37.5371 166.6 37.2059V35.5379H166.601Z" fill="#F1F1F1"/>
  <path d="M175.046 38.5667C174.827 38.7984 174.567 38.9839 174.268 39.1227C173.969 39.2616 173.62 39.3313 173.221 39.3313C172.822 39.3313 172.466 39.2717 172.153 39.1525C171.84 39.0333 171.578 38.8647 171.365 38.646C171.152 38.4272 170.99 38.1658 170.877 37.8618C170.764 37.5577 170.707 37.2198 170.707 36.8493C170.707 36.5114 170.768 36.1924 170.891 35.8911C171.015 35.5897 171.186 35.327 171.405 35.1014C171.625 34.8766 171.889 34.6978 172.198 34.5658C172.507 34.433 172.848 34.3673 173.221 34.3673C173.594 34.3673 173.946 34.4351 174.259 34.5705C174.572 34.7059 174.838 34.8901 175.058 35.1218L174.309 35.8762C174.176 35.7238 174.02 35.6046 173.84 35.5186C173.66 35.4326 173.454 35.3893 173.221 35.3893C172.989 35.3893 172.799 35.4306 172.633 35.5132C172.467 35.5958 172.328 35.7035 172.219 35.8362C172.109 35.969 172.028 36.124 171.974 36.3028C171.921 36.4816 171.895 36.6638 171.895 36.8487C171.895 37.0335 171.921 37.2028 171.974 37.3748C172.028 37.5469 172.109 37.7026 172.219 37.8414C172.328 37.9803 172.467 38.0934 172.633 38.1787C172.799 38.2647 172.995 38.3074 173.221 38.3074C173.447 38.3074 173.667 38.2627 173.86 38.1733C174.053 38.0839 174.216 37.9633 174.349 37.811L175.047 38.5654V38.5667H175.046Z" fill="#F1F1F1"/>
  <path d="M31.3077 5.86148H35.0629V13.1449C35.3161 12.893 35.8048 12.6045 36.5291 12.2896C37.2533 11.9747 38.1218 11.8122 39.1353 11.8122C40.221 11.8122 41.1807 12.0099 42.0132 12.4156C42.8545 12.8205 43.5699 13.3521 44.158 14.0273C44.7549 14.7025 45.1987 15.5037 45.5064 16.4314C45.814 17.3586 45.9679 18.3398 45.9679 19.3753C45.9679 20.492 45.7691 21.5451 45.3798 22.5264C44.9904 23.5077 44.4207 24.363 43.6965 25.0923C42.9634 25.8217 42.0765 26.398 41.0357 26.8301C39.995 27.2621 38.8277 27.4782 37.5337 27.4782C36.2398 27.4782 35.0452 27.3698 33.9595 27.1633C32.8644 26.956 31.9775 26.7312 31.2988 26.4969L31.3077 5.86148ZM35.0629 23.9404C35.3617 24.0488 35.6694 24.1293 35.9859 24.1747C36.3024 24.2289 36.8006 24.256 37.4793 24.256C38.2396 24.256 38.9094 24.1212 39.4879 23.8598C40.0583 23.5984 40.5464 23.2476 40.9541 22.7973C41.3611 22.3564 41.6599 21.8431 41.8587 21.258C42.0574 20.6816 42.1575 20.0782 42.1575 19.466C42.1575 18.8985 42.0853 18.3493 41.9492 17.8184C41.8137 17.2874 41.5966 16.8188 41.2978 16.4138C40.999 15.9994 40.628 15.6757 40.1665 15.4326C39.7139 15.1894 39.1619 15.0723 38.5289 15.0723C37.3799 15.0723 36.5202 15.3601 35.941 15.9459C35.3617 16.5222 35.0629 17.3233 35.0629 18.3317V23.9411V23.9404Z" fill="#F1F1F1"/>
  <path d="M48.9629 5.86148H52.7181V26.9743H48.9629V5.86148Z" fill="#F1F1F1"/>
  <path d="M65.2222 25.5788C64.8152 26.0651 64.2087 26.4971 63.3762 26.875C62.5526 27.2529 61.6297 27.4425 60.6073 27.4425C59.992 27.4425 59.3855 27.3437 58.779 27.1547C58.1726 26.9658 57.6205 26.6773 57.123 26.2811C56.6254 25.8938 56.2184 25.3899 55.9107 24.7777C55.603 24.1655 55.4492 23.4449 55.4492 22.6262C55.4492 21.8074 55.6119 21.0239 55.9291 20.3663C56.2456 19.7087 56.6894 19.1419 57.2686 18.6916C57.839 18.2412 58.5265 17.8992 59.3317 17.6649C60.137 17.4306 61.0327 17.3141 62.0013 17.3141C62.3001 17.3141 62.6255 17.3229 62.9876 17.3324C63.3497 17.3412 63.6934 17.3595 64.0372 17.3771C64.417 17.3954 64.8063 17.4218 65.2134 17.4401V17.0893C65.2134 16.3511 64.9146 15.7748 64.3176 15.3516C63.7207 14.9283 62.9515 14.7211 61.9918 14.7211C60.9333 14.7211 60.0825 14.8558 59.4488 15.1355C58.8151 15.4057 58.2542 15.703 57.7655 16.0267L56.0462 13.4967C56.345 13.2894 56.6799 13.0734 57.0597 12.8486C57.4395 12.6237 57.8833 12.4253 58.3992 12.2452C58.9056 12.065 59.4944 11.9208 60.1635 11.8043C60.8333 11.6871 61.6113 11.633 62.4982 11.633C63.4573 11.633 64.3169 11.7677 65.0861 12.0291C65.8552 12.2905 66.525 12.6596 67.077 13.1364C67.629 13.6138 68.0545 14.1806 68.3533 14.847C68.6521 15.5134 68.7964 16.2333 68.7964 17.0168V26.9834H65.2944L65.2222 25.5788ZM65.2222 20.2668C64.8424 20.2485 64.4714 20.2221 64.1093 20.2038C63.8105 20.1855 63.5029 20.1679 63.168 20.1591C62.8419 20.1503 62.5615 20.1408 62.3267 20.1408C61.1144 20.1408 60.2724 20.3751 59.7837 20.8519C59.295 21.3293 59.0506 21.8691 59.0506 22.4813C59.0506 23.0935 59.2766 23.6068 59.7381 23.9671C60.1907 24.3274 60.8694 24.5075 61.7563 24.5075C62.1994 24.5075 62.6343 24.4357 63.0414 24.2827C63.4484 24.1296 63.8194 23.9319 64.1366 23.6793C64.4531 23.4273 64.7158 23.13 64.9146 22.788C65.1133 22.4549 65.2134 22.0946 65.2134 21.7079L65.2222 20.2675V20.2668Z" fill="#F1F1F1"/>
  <path d="M85.5833 25.0107C84.8863 25.7489 84.0539 26.3435 83.1037 26.7844C82.1446 27.2252 81.0317 27.4507 79.7643 27.4507C78.4969 27.4507 77.3575 27.2618 76.3617 26.8832C75.3666 26.5054 74.5246 25.9649 73.846 25.2715C73.1673 24.578 72.6514 23.741 72.2893 22.7685C71.9272 21.796 71.7461 20.7246 71.7461 19.5361C71.7461 18.456 71.9448 17.4381 72.3342 16.4839C72.7235 15.5203 73.2756 14.6832 73.9719 13.9721C74.6689 13.2516 75.519 12.6848 76.4965 12.2615C77.4827 11.8382 78.5684 11.631 79.7541 11.631C80.9398 11.631 82.0616 11.847 83.0662 12.2791C84.0614 12.7112 84.9122 13.2963 85.6092 14.0344L83.2201 16.4386C82.7947 15.9523 82.2971 15.5744 81.7267 15.2954C81.1563 15.0252 80.4961 14.881 79.7541 14.881C79.0122 14.881 78.4057 15.0157 77.8809 15.2771C77.3473 15.5385 76.9124 15.8805 76.5598 16.3038C76.2072 16.7271 75.9533 17.2221 75.7818 17.7896C75.6096 18.3571 75.5286 18.9422 75.5286 19.5273C75.5286 20.1124 75.6102 20.6529 75.7818 21.2021C75.954 21.7513 76.2072 22.2463 76.5598 22.6879C76.9124 23.1288 77.3473 23.489 77.8809 23.7681C78.4146 24.0383 79.0394 24.1825 79.7541 24.1825C80.4688 24.1825 81.1747 24.0383 81.79 23.7592C82.4053 23.4714 82.9213 23.0929 83.3467 22.6066L85.582 25.0107H85.5833Z" fill="#F1F1F1"/>
  <path d="M88.0898 5.86148H91.8451V17.3856L97.2203 12.1277H101.645L96.0441 17.6017L102.279 26.9743H97.7907L93.4651 20.1406L91.8451 21.7252V26.9831H88.0898V5.86148Z" fill="#F1F1F1"/>
  <path d="M5.46507 10.4034H0.274989C0.1232 10.4034 0 10.526 0 10.677V14.9374C0 15.0884 0.1232 15.211 0.274989 15.211H14.4008C14.6078 15.211 14.7282 14.9794 14.6091 14.8114L6.37103 3.2202C6.14573 2.90326 5.78021 2.715 5.39019 2.715H0.000680666L5.46575 10.4041H5.46507V10.4034Z" fill="#F1F1F1"/>
  <path d="M14.4008 18.1857H0.274989C0.1232 18.1857 0 18.3083 0 18.4593V22.7197C0 22.8707 0.1232 22.9932 0.274989 22.9932H5.46506L0 30.6248H5.43035C5.82037 30.6248 6.18589 30.4365 6.41119 30.1196L14.6084 18.5859C14.7276 18.418 14.6071 18.1864 14.4002 18.1864H14.4008V18.1857Z" fill="#F1F1F1"/>
  <path d="M25.5141 16.6026L16.0032 3.2202C15.7779 2.90326 15.4123 2.715 15.0223 2.715H9.63281L19.6066 16.7489L19.6121 16.7415V16.757L19.6066 16.7489L9.74512 30.625H15.1346C15.5247 30.625 15.8902 30.4368 16.1155 30.1198L25.5141 16.8959C25.5767 16.8078 25.5767 16.6907 25.5141 16.6033V16.6026Z" fill="#F1F1F1"/>
</svg>
