<svg width="1600" height="500" viewBox="0 0 1600 500" fill="none" xmlns="http://www.w3.org/2000/svg">
<path d="M59.36 152.91H216.23L59.36 347.91V403.54H304.35V341.66H148.1L304.35 146.66V91.04H59.36V152.91Z" fill="white"/>
<path d="M555.93 106.04C533.43 93.1299 507.39 86.6699 477.81 86.6699C448.23 86.6699 422.6 93.5499 399.69 107.29C376.77 121.04 358.85 139.79 345.94 163.54C333.02 187.29 326.57 214.38 326.57 244.79C326.57 276.88 333.13 305.21 346.26 329.79C359.39 354.38 377.72 373.54 401.26 387.29C424.79 401.04 452.2 407.91 483.45 407.91C514.7 407.91 541.36 400.72 565.95 386.35C590.53 371.98 609.08 352.29 621.57 327.29L559.7 306.67C554.28 318.34 544.59 327.71 530.64 334.79C516.67 341.88 500.95 345.42 483.45 345.42C468.86 345.42 455.95 342.51 444.7 336.67C433.45 330.84 424.17 322.61 416.89 311.98C409.6 301.35 404.91 288.76 402.83 274.17H625.33C626.16 267.92 626.79 261.98 627.21 256.36C627.62 250.74 627.83 245.42 627.83 240.42C627.83 210.01 621.47 183.23 608.77 160.11C596.05 136.99 578.46 118.97 555.96 106.05L555.93 106.04ZM404.06 216.66C406.14 202.91 410.83 190.94 418.12 180.72C425.41 170.52 434.26 162.5 444.68 156.66C455.09 150.83 466.13 147.91 477.81 147.91C491.14 147.91 503.22 150.94 514.06 156.97C524.89 163.01 533.64 171.25 540.31 181.66C546.97 192.08 550.51 203.75 550.94 216.66H404.07H404.06Z" fill="white"/>
<path d="M856.19 281.88C896.51 271.67 926.5 233.38 926.5 187.67C926.5 134.15 885.42 90.77 834.74 90.77C831.93 90.77 829.15 90.92 826.4 91.19V90.77H670.68V407.77H741.13V284.57H787.3L857.92 407.77H928.37L856.21 281.88H856.19ZM829.17 223.89C828.23 223.89 827.31 223.82 826.39 223.74V223.89H741.11V151.46H826.39V151.61C827.31 151.53 828.23 151.46 829.17 151.46C848.11 151.46 863.47 167.67 863.47 187.68C863.47 207.69 848.12 223.9 829.17 223.9V223.89Z" fill="white"/>
<path d="M1489.85 87.0601H1117.44V87.1001C1116.51 87.0801 1115.59 87.0601 1114.66 87.0601C1024.05 87.0601 950.6 160.1 950.6 250.2C950.6 340.3 1024.05 413.34 1114.66 413.34C1114.81 413.34 1114.95 413.34 1115.1 413.34C1115.25 413.34 1115.39 413.34 1115.54 413.34C1153.66 413.34 1189.66 400.27 1218.34 378.45C1233.37 367.02 1246.4 353.18 1256.66 337.57C1257.38 336.47 1310.03 250.2 1310.03 250.2H1225.93C1225.93 250.2 1193.96 305.63 1185.94 314.25C1168.4 333.11 1143.46 345.12 1115.58 345.13V345.11C1115.42 345.11 1115.26 345.11 1115.09 345.12C1114.93 345.12 1114.77 345.11 1114.6 345.11V345.13C1061.89 345.11 1019.17 302.61 1019.17 250.2C1019.17 197.79 1061.82 155.36 1114.47 155.27H1117.65L1448.95 155.66L1295.23 413.34H1378.94L1540.62 143.38V87.0701H1489.82L1489.85 87.0601Z" fill="url(#paint0_linear_253_37)"/>
<defs>
<linearGradient id="paint0_linear_253_37" x1="950.59" y1="250.2" x2="1540.64" y2="250.2" gradientUnits="userSpaceOnUse">
<stop stop-color="#B2B2B2"/>
<stop offset="1" stop-color="white"/>
</linearGradient>
</defs>
</svg>
