<svg width="176" height="55" viewBox="0 0 176 55" fill="none" xmlns="http://www.w3.org/2000/svg">
<path d="M6.52979 16.8201H23.7855L6.52979 38.2701V44.3894H33.4787V37.5826H16.2912L33.4787 16.1326V10.0144H6.52979V16.8201Z" fill="white"/>
<path d="M61.1525 11.6644C58.6775 10.2443 55.8131 9.53369 52.5593 9.53369C49.3055 9.53369 46.4862 10.2905 43.9661 11.8019C41.4449 13.3144 39.4737 15.3769 38.0536 17.9894C36.6324 20.6019 35.9229 23.5818 35.9229 26.9269C35.9229 30.4568 36.6445 33.5731 38.0888 36.2769C39.5331 38.9818 41.5494 41.0894 44.1388 42.6019C46.7271 44.1144 49.7422 44.8701 53.1797 44.8701C56.6172 44.8701 59.5498 44.0792 62.2547 42.4985C64.9585 40.9178 66.999 38.7519 68.3729 36.0019L61.5672 33.7337C60.971 35.0174 59.9051 36.0481 58.3706 36.8269C56.8339 37.6068 55.1047 37.9962 53.1797 37.9962C51.5748 37.9962 50.1547 37.6761 48.9172 37.0337C47.6797 36.3924 46.6589 35.4871 45.8581 34.3178C45.0562 33.1485 44.5402 31.7636 44.3114 30.1587H68.7865C68.8778 29.4712 68.9471 28.8178 68.9933 28.1996C69.0384 27.5814 69.0615 26.9962 69.0615 26.4462C69.0615 23.1011 68.3619 20.1553 66.9649 17.6121C65.5657 15.0689 63.6308 13.0867 61.1558 11.6655L61.1525 11.6644ZM44.4468 23.8326C44.6756 22.3201 45.1915 21.0034 45.9934 19.8792C46.7953 18.7572 47.7688 17.875 48.915 17.2326C50.0601 16.5913 51.2745 16.2701 52.5593 16.2701C54.0256 16.2701 55.3544 16.6034 56.5468 17.2667C57.7381 17.9311 58.7006 18.8375 59.4343 19.9826C60.1669 21.1288 60.5563 22.4125 60.6036 23.8326H44.4479H44.4468Z" fill="white"/>
<path d="M94.181 31.0068C98.6162 29.8837 101.915 25.6718 101.915 20.6437C101.915 14.7565 97.3963 9.98474 91.8215 9.98474C91.5124 9.98474 91.2066 10.0012 90.9041 10.0309V9.98474H73.7749V44.8547H81.5244V31.3027H86.6031L94.3713 44.8547H102.121L94.1832 31.0068H94.181ZM91.2088 24.6279C91.1054 24.6279 91.0042 24.6202 90.903 24.6114V24.6279H81.5222V16.6606H90.903V16.6771C91.0042 16.6683 91.1054 16.6606 91.2088 16.6606C93.2922 16.6606 94.9818 18.4437 94.9818 20.6448C94.9818 22.8459 93.2933 24.629 91.2088 24.629V24.6279Z" fill="white"/>
<path d="M163.883 9.57666H122.918V9.58106C122.816 9.57886 122.715 9.57666 122.613 9.57666C112.645 9.57666 104.566 17.6111 104.566 27.5221C104.566 37.4331 112.645 45.4675 122.613 45.4675C122.629 45.4675 122.644 45.4675 122.661 45.4675C122.677 45.4675 122.693 45.4675 122.709 45.4675C126.903 45.4675 130.863 44.0298 134.017 41.6296C135.671 40.3723 137.104 38.8499 138.233 37.1328C138.312 37.0118 144.103 27.5221 144.103 27.5221H134.852C134.852 27.5221 131.336 33.6194 130.453 34.5676C128.524 36.6422 125.781 37.9633 122.714 37.9644V37.9622C122.696 37.9622 122.679 37.9622 122.66 37.9633C122.642 37.9633 122.625 37.9622 122.606 37.9622V37.9644C116.808 37.9622 112.109 33.2872 112.109 27.5221C112.109 21.757 116.8 17.0897 122.592 17.0798H122.941L159.384 17.1227L142.475 45.4675H151.683L169.468 15.7719V9.57776H163.88L163.883 9.57666Z" fill="url(#paint0_linear_114_2)"/>
<defs>
<linearGradient id="paint0_linear_114_2" x1="169.467" y1="27.5569" x2="104.567" y2="27.4872" gradientUnits="userSpaceOnUse">
<stop stop-color="#023C83"/>
<stop offset="1" stop-color="#1DA4F3"/>
</linearGradient>
</defs>
</svg>
