<svg width="914" height="113" viewBox="0 0 914 113" fill="none" xmlns="http://www.w3.org/2000/svg">
<path d="M15.7763 50.7916C13.0621 50.7916 10.329 50.4524 7.57714 49.7738C4.82525 49.0953 2.45032 48.134 0.452367 46.89L4.46712 38.4646C6.0881 39.5202 7.84102 40.3307 9.72589 40.8961C11.6484 41.4616 13.5522 41.7443 15.437 41.7443C17.3219 41.7443 18.8486 41.3862 20.0172 40.6699C21.1858 39.916 21.7702 38.8793 21.7702 37.5599C21.7702 36.7683 21.544 36.0709 21.0916 35.4677C20.6392 34.8269 19.8664 34.3556 18.7732 34.0541C17.68 33.7148 16.1156 33.5452 14.0799 33.5452H3.33621L5.31531 10.4179H30.5348V19.0694H9.27352L14.9846 14.1499L13.6841 29.7566L7.97296 24.8371H16.7376C20.6581 24.8371 23.8058 25.4026 26.1807 26.5335C28.5557 27.6267 30.2897 29.1157 31.3829 31.0006C32.4762 32.8478 33.0228 34.94 33.0228 37.2772C33.0228 39.6144 32.4008 41.8197 31.1568 43.893C29.9505 45.9287 28.0844 47.5874 25.5587 48.8691C23.033 50.1508 19.7722 50.7916 15.7763 50.7916ZM41.6562 50L57.0932 14.5458L60.0901 19.2956H40.0163L44.5966 14.1499V25.4026H35.0403V10.4179H67.8369V17.4296L53.8701 50H41.6562ZM77.6008 50L104.63 10.4179H112.772L85.7434 50H77.6008ZM81.2197 31.8488C79.2972 31.8488 77.5631 31.4153 76.0175 30.5482C74.4719 29.6812 73.2656 28.4372 72.3986 26.8162C71.5315 25.1575 71.098 23.1784 71.098 20.8789C71.098 18.5794 71.5315 16.6191 72.3986 14.9981C73.2656 13.3771 74.4719 12.1331 76.0175 11.2661C77.5631 10.3614 79.2972 9.90899 81.2197 9.90899C83.18 9.90899 84.914 10.3614 86.4219 11.2661C87.9675 12.1331 89.1738 13.3771 90.0409 14.9981C90.9456 16.6191 91.398 18.5794 91.398 20.8789C91.398 23.1407 90.9456 25.101 90.0409 26.7597C89.1738 28.4183 87.9675 29.6812 86.4219 30.5482C84.914 31.4153 83.18 31.8488 81.2197 31.8488ZM81.2763 26.4769C82.2187 26.4769 82.9915 26.0434 83.5946 25.1764C84.2355 24.3093 84.5559 22.8768 84.5559 20.8789C84.5559 18.8809 84.2355 17.4484 83.5946 16.5814C82.9915 15.7144 82.2187 15.2808 81.2763 15.2808C80.3338 15.2808 79.5233 15.7144 78.8448 16.5814C78.2039 17.4484 77.8835 18.8809 77.8835 20.8789C77.8835 22.8768 78.2039 24.3093 78.8448 25.1764C79.5233 26.0434 80.3338 26.4769 81.2763 26.4769ZM109.153 50.5089C107.193 50.5089 105.44 50.0754 103.895 49.2084C102.387 48.3413 101.199 47.0973 100.332 45.4763C99.4652 43.8177 99.0317 41.8385 99.0317 39.539C99.0317 37.2395 99.4652 35.2792 100.332 33.6583C101.199 32.0373 102.387 30.7933 103.895 29.9262C105.44 29.0215 107.193 28.5691 109.153 28.5691C111.114 28.5691 112.848 29.0215 114.356 29.9262C115.901 30.7933 117.107 32.0373 117.975 33.6583C118.879 35.2792 119.332 37.2395 119.332 39.539C119.332 41.8385 118.879 43.8177 117.975 45.4763C117.107 47.0973 115.901 48.3413 114.356 49.2084C112.848 50.0754 111.114 50.5089 109.153 50.5089ZM109.153 45.1371C110.096 45.1371 110.887 44.7035 111.528 43.8365C112.169 42.9695 112.49 41.537 112.49 39.539C112.49 37.5411 112.169 36.1086 111.528 35.2415C110.887 34.3745 110.096 33.941 109.153 33.941C108.249 33.941 107.457 34.3745 106.778 35.2415C106.138 36.1086 105.817 37.5411 105.817 39.539C105.817 41.537 106.138 42.9695 106.778 43.8365C107.457 44.7035 108.249 45.1371 109.153 45.1371ZM140.978 50.5089C137.623 50.5089 134.644 49.8304 132.043 48.4733C129.442 47.1162 127.388 45.2501 125.88 42.8752C124.41 40.4626 123.675 37.7107 123.675 34.6195C123.675 31.5284 124.41 28.7953 125.88 26.4204C127.388 24.0455 129.442 22.1983 132.043 20.8789C134.644 19.5218 137.623 18.8432 140.978 18.8432C144.333 18.8432 147.311 19.5218 149.912 20.8789C152.551 22.1983 154.605 24.0455 156.075 26.4204C157.546 28.7953 158.281 31.5284 158.281 34.6195C158.281 37.7107 157.546 40.4626 156.075 42.8752C154.605 45.2501 152.551 47.1162 149.912 48.4733C147.311 49.8304 144.333 50.5089 140.978 50.5089ZM140.978 41.9705C142.222 41.9705 143.315 41.6878 144.257 41.1223C145.237 40.5568 146.01 39.7275 146.576 38.6343C147.141 37.5034 147.424 36.1651 147.424 34.6195C147.424 33.0739 147.141 31.7734 146.576 30.7179C146.01 29.6246 145.237 28.7953 144.257 28.2298C143.315 27.6644 142.222 27.3817 140.978 27.3817C139.771 27.3817 138.678 27.6644 137.698 28.2298C136.756 28.7953 135.983 29.6246 135.38 30.7179C134.814 31.7734 134.531 33.0739 134.531 34.6195C134.531 36.1651 134.814 37.5034 135.38 38.6343C135.983 39.7275 136.756 40.5568 137.698 41.1223C138.678 41.6878 139.771 41.9705 140.978 41.9705ZM164.502 50V19.6914C164.502 15.9971 165.595 13.0567 167.781 10.8703C170.005 8.64614 173.172 7.53407 177.281 7.53407C178.6 7.53407 179.901 7.66601 181.183 7.92989C182.464 8.19377 183.539 8.58959 184.406 9.11735L181.748 16.6945C181.296 16.4306 180.787 16.2233 180.221 16.0725C179.656 15.884 179.09 15.7898 178.525 15.7898C177.394 15.7898 176.508 16.129 175.867 16.8076C175.264 17.4484 174.963 18.4474 174.963 19.8045V22.0098L175.245 26.4769V50H164.502ZM160.034 28.5126V20.4831H182.257V28.5126H160.034ZM188.246 50V19.6914C188.246 15.9971 189.34 13.0567 191.526 10.8703C193.75 8.64614 196.917 7.53407 201.026 7.53407C202.345 7.53407 203.646 7.66601 204.927 7.92989C206.209 8.19377 207.284 8.58959 208.151 9.11735L205.493 16.6945C205.041 16.4306 204.532 16.2233 203.966 16.0725C203.401 15.884 202.835 15.7898 202.27 15.7898C201.139 15.7898 200.253 16.129 199.612 16.8076C199.009 17.4484 198.707 18.4474 198.707 19.8045V22.0098L198.99 26.4769V50H188.246ZM183.779 28.5126V20.4831H206.002V28.5126H183.779ZM237.23 25.7418H255.608V34.1106H237.23V25.7418ZM238.022 41.3485H258.718V50H226.939V10.4179H257.982V19.0694H238.022V41.3485ZM264.931 50V10.4179H274.148L290.546 37.3337H285.683L301.629 10.4179H310.846L310.959 50H300.668L300.554 26.0811H302.307L290.376 46.0983H285.4L273.13 26.0811H275.278V50H264.931ZM343.762 50V19.2956H331.605V10.4179H367.059V19.2956H354.958V50H343.762ZM390.639 50.7916C387.472 50.7916 384.55 50.2827 381.874 49.2649C379.197 48.2471 376.86 46.8146 374.862 44.9674C372.902 43.0826 371.375 40.8961 370.282 38.4081C369.189 35.9201 368.642 33.187 368.642 30.209C368.642 27.2309 369.189 24.4978 370.282 22.0098C371.375 19.5218 372.902 17.3542 374.862 15.507C376.86 13.6222 379.197 12.1708 381.874 11.153C384.55 10.1352 387.472 9.62626 390.639 9.62626C393.843 9.62626 396.764 10.1352 399.403 11.153C402.08 12.1708 404.398 13.6222 406.358 15.507C408.319 17.3542 409.845 19.5218 410.939 22.0098C412.069 24.4978 412.635 27.2309 412.635 30.209C412.635 33.187 412.069 35.9389 410.939 38.4646C409.845 40.9527 408.319 43.1203 406.358 44.9674C404.398 46.8146 402.08 48.2471 399.403 49.2649C396.764 50.2827 393.843 50.7916 390.639 50.7916ZM390.639 41.5181C392.146 41.5181 393.541 41.2542 394.823 40.7265C396.142 40.1987 397.273 39.4448 398.216 38.4646C399.196 37.4468 399.95 36.2405 400.478 34.8457C401.043 33.4509 401.326 31.9053 401.326 30.209C401.326 28.4749 401.043 26.9293 400.478 25.5722C399.95 24.1774 399.196 22.9899 398.216 22.0098C397.273 20.992 396.142 20.2192 394.823 19.6914C393.541 19.1637 392.146 18.8998 390.639 18.8998C389.131 18.8998 387.717 19.1637 386.398 19.6914C385.116 20.2192 383.985 20.992 383.005 22.0098C382.062 22.9899 381.309 24.1774 380.743 25.5722C380.215 26.9293 379.951 28.4749 379.951 30.209C379.951 31.9053 380.215 33.4509 380.743 34.8457C381.309 36.2405 382.062 37.4468 383.005 38.4646C383.985 39.4448 385.116 40.1987 386.398 40.7265C387.717 41.2542 389.131 41.5181 390.639 41.5181ZM418.499 50V10.4179H437.216C441.588 10.4179 445.434 11.2284 448.751 12.8494C452.068 14.4704 454.651 16.751 456.498 19.6914C458.383 22.6318 459.325 26.1377 459.325 30.209C459.325 34.2426 458.383 37.7484 456.498 40.7265C454.651 43.6669 452.068 45.9475 448.751 47.5685C445.434 49.1895 441.588 50 437.216 50H418.499ZM429.695 41.0658H436.763C439.025 41.0658 440.985 40.6511 442.644 39.8217C444.34 38.9547 445.66 37.7107 446.602 36.0897C447.545 34.431 448.016 32.4708 448.016 30.209C448.016 27.9094 447.545 25.9492 446.602 24.3282C445.66 22.7072 444.34 21.482 442.644 20.6527C440.985 19.7857 439.025 19.3521 436.763 19.3521H429.695V41.0658ZM485.176 50.7916C482.01 50.7916 479.088 50.2827 476.412 49.2649C473.735 48.2471 471.398 46.8146 469.4 44.9674C467.44 43.0826 465.913 40.8961 464.82 38.4081C463.726 35.9201 463.18 33.187 463.18 30.209C463.18 27.2309 463.726 24.4978 464.82 22.0098C465.913 19.5218 467.44 17.3542 469.4 15.507C471.398 13.6222 473.735 12.1708 476.412 11.153C479.088 10.1352 482.01 9.62626 485.176 9.62626C488.38 9.62626 491.302 10.1352 493.941 11.153C496.617 12.1708 498.936 13.6222 500.896 15.507C502.856 17.3542 504.383 19.5218 505.476 22.0098C506.607 24.4978 507.172 27.2309 507.172 30.209C507.172 33.187 506.607 35.9389 505.476 38.4646C504.383 40.9527 502.856 43.1203 500.896 44.9674C498.936 46.8146 496.617 48.2471 493.941 49.2649C491.302 50.2827 488.38 50.7916 485.176 50.7916ZM485.176 41.5181C486.684 41.5181 488.079 41.2542 489.361 40.7265C490.68 40.1987 491.811 39.4448 492.753 38.4646C493.733 37.4468 494.487 36.2405 495.015 34.8457C495.581 33.4509 495.863 31.9053 495.863 30.209C495.863 28.4749 495.581 26.9293 495.015 25.5722C494.487 24.1774 493.733 22.9899 492.753 22.0098C491.811 20.992 490.68 20.2192 489.361 19.6914C488.079 19.1637 486.684 18.8998 485.176 18.8998C483.668 18.8998 482.255 19.1637 480.935 19.6914C479.654 20.2192 478.523 20.992 477.542 22.0098C476.6 22.9899 475.846 24.1774 475.281 25.5722C474.753 26.9293 474.489 28.4749 474.489 30.209C474.489 31.9053 474.753 33.4509 475.281 34.8457C475.846 36.2405 476.6 37.4468 477.542 38.4646C478.523 39.4448 479.654 40.1987 480.935 40.7265C482.255 41.2542 483.668 41.5181 485.176 41.5181ZM526.947 50.7916C523.705 50.7916 520.576 50.3958 517.56 49.6042C514.582 48.7748 512.151 47.7193 510.266 46.4376L513.941 38.1819C515.713 39.3128 517.749 40.2553 520.048 41.0092C522.385 41.7255 524.704 42.0836 527.003 42.0836C528.549 42.0836 529.793 41.9516 530.735 41.6878C531.678 41.3862 532.356 41.0092 532.771 40.5568C533.223 40.0668 533.45 39.5013 533.45 38.8605C533.45 37.9557 533.035 37.2395 532.206 36.7117C531.376 36.184 530.302 35.7504 528.982 35.4112C527.663 35.0719 526.193 34.7326 524.572 34.3933C522.989 34.0541 521.386 33.6206 519.765 33.0928C518.182 32.565 516.731 31.8865 515.411 31.0571C514.092 30.1901 513.018 29.078 512.188 27.7209C511.359 26.3261 510.944 24.5732 510.944 22.4622C510.944 20.0872 511.585 17.9385 512.867 16.0159C514.186 14.0934 516.147 12.5478 518.748 11.3792C521.349 10.2106 524.591 9.62626 528.474 9.62626C531.075 9.62626 533.619 9.92784 536.107 10.531C538.633 11.0965 540.876 11.9446 542.836 13.0756L539.387 21.3878C537.502 20.37 535.636 19.616 533.789 19.126C531.942 18.5982 530.151 18.3343 528.417 18.3343C526.871 18.3343 525.627 18.504 524.685 18.8432C523.743 19.1448 523.064 19.5595 522.649 20.0872C522.235 20.615 522.027 21.2182 522.027 21.8967C522.027 22.7637 522.423 23.4611 523.215 23.9889C524.044 24.479 525.118 24.8936 526.438 25.2329C527.795 25.5345 529.265 25.8549 530.848 26.1942C532.469 26.5335 534.072 26.967 535.655 27.4948C537.276 27.9848 538.746 28.6634 540.065 29.5304C541.385 30.3597 542.44 31.4718 543.232 32.8666C544.061 34.2237 544.476 35.9389 544.476 38.0123C544.476 40.3118 543.816 42.4417 542.497 44.402C541.215 46.3245 539.274 47.8701 536.673 49.0387C534.109 50.2073 530.867 50.7916 526.947 50.7916ZM586.064 50.7916C582.898 50.7916 579.976 50.2827 577.299 49.2649C574.623 48.2471 572.286 46.8146 570.288 44.9674C568.328 43.0826 566.801 40.8961 565.708 38.4081C564.614 35.9201 564.068 33.187 564.068 30.209C564.068 27.2309 564.614 24.4978 565.708 22.0098C566.801 19.5218 568.328 17.3542 570.288 15.507C572.286 13.6222 574.623 12.1708 577.299 11.153C579.976 10.1352 582.898 9.62626 586.064 9.62626C589.268 9.62626 592.19 10.1352 594.829 11.153C597.505 12.1708 599.824 13.6222 601.784 15.507C603.744 17.3542 605.271 19.5218 606.364 22.0098C607.495 24.4978 608.06 27.2309 608.06 30.209C608.06 33.187 607.495 35.9389 606.364 38.4646C605.271 40.9527 603.744 43.1203 601.784 44.9674C599.824 46.8146 597.505 48.2471 594.829 49.2649C592.19 50.2827 589.268 50.7916 586.064 50.7916ZM586.064 41.5181C587.572 41.5181 588.967 41.2542 590.248 40.7265C591.568 40.1987 592.699 39.4448 593.641 38.4646C594.621 37.4468 595.375 36.2405 595.903 34.8457C596.469 33.4509 596.751 31.9053 596.751 30.209C596.751 28.4749 596.469 26.9293 595.903 25.5722C595.375 24.1774 594.621 22.9899 593.641 22.0098C592.699 20.992 591.568 20.2192 590.248 19.6914C588.967 19.1637 587.572 18.8998 586.064 18.8998C584.556 18.8998 583.143 19.1637 581.823 19.6914C580.541 20.2192 579.411 20.992 578.43 22.0098C577.488 22.9899 576.734 24.1774 576.169 25.5722C575.641 26.9293 575.377 28.4749 575.377 30.209C575.377 31.9053 575.641 33.4509 576.169 34.8457C576.734 36.2405 577.488 37.4468 578.43 38.4646C579.411 39.4448 580.541 40.1987 581.823 40.7265C583.143 41.2542 584.556 41.5181 586.064 41.5181ZM627.835 50.7916C624.593 50.7916 621.464 50.3958 618.448 49.6042C615.47 48.7748 613.039 47.7193 611.154 46.4376L614.829 38.1819C616.601 39.3128 618.637 40.2553 620.936 41.0092C623.273 41.7255 625.592 42.0836 627.891 42.0836C629.437 42.0836 630.681 41.9516 631.623 41.6878C632.566 41.3862 633.244 41.0092 633.659 40.5568C634.111 40.0668 634.338 39.5013 634.338 38.8605C634.338 37.9557 633.923 37.2395 633.093 36.7117C632.264 36.184 631.19 35.7504 629.87 35.4112C628.551 35.0719 627.081 34.7326 625.46 34.3933C623.877 34.0541 622.274 33.6206 620.653 33.0928C619.07 32.565 617.619 31.8865 616.299 31.0571C614.98 30.1901 613.906 29.078 613.076 27.7209C612.247 26.3261 611.832 24.5732 611.832 22.4622C611.832 20.0872 612.473 17.9385 613.755 16.0159C615.074 14.0934 617.034 12.5478 619.636 11.3792C622.237 10.2106 625.479 9.62626 629.361 9.62626C631.963 9.62626 634.507 9.92784 636.995 10.531C639.521 11.0965 641.764 11.9446 643.724 13.0756L640.275 21.3878C638.39 20.37 636.524 19.616 634.677 19.126C632.83 18.5982 631.039 18.3343 629.305 18.3343C627.759 18.3343 626.515 18.504 625.573 18.8432C624.63 19.1448 623.952 19.5595 623.537 20.0872C623.123 20.615 622.915 21.2182 622.915 21.8967C622.915 22.7637 623.311 23.4611 624.103 23.9889C624.932 24.479 626.006 24.8936 627.326 25.2329C628.683 25.5345 630.153 25.8549 631.736 26.1942C633.357 26.5335 634.96 26.967 636.543 27.4948C638.164 27.9848 639.634 28.6634 640.953 29.5304C642.273 30.3597 643.328 31.4718 644.12 32.8666C644.949 34.2237 645.364 35.9389 645.364 38.0123C645.364 40.3118 644.704 42.4417 643.385 44.402C642.103 46.3245 640.162 47.8701 637.561 49.0387C634.997 50.2073 631.755 50.7916 627.835 50.7916ZM666.991 50V10.4179H685.086C688.705 10.4179 691.815 11.0022 694.416 12.1708C697.055 13.3394 699.091 15.0358 700.523 17.26C701.956 19.4464 702.672 22.0475 702.672 25.0633C702.672 28.0414 701.956 30.6236 700.523 32.8101C699.091 34.9965 697.055 36.6929 694.416 37.8992C691.815 39.0678 688.705 39.6521 685.086 39.6521H673.211L678.187 34.7892V50H666.991ZM678.187 35.9766L673.211 30.831H684.407C686.745 30.831 688.479 30.322 689.61 29.3042C690.778 28.2864 691.363 26.8727 691.363 25.0633C691.363 23.2161 690.778 21.7836 689.61 20.7658C688.479 19.748 686.745 19.2391 684.407 19.2391H673.211L678.187 14.0934V35.9766ZM708.131 50V10.4179H719.327V41.1223H738.213V50H708.131ZM738.28 50L755.753 10.4179H766.779L784.309 50H772.66L758.976 15.9029H763.387L749.703 50H738.28ZM747.837 42.3098L750.72 34.0541H770.059L772.943 42.3098H747.837ZM787.483 50V10.4179H796.7L818.526 36.7683H814.172V10.4179H825.142V50H815.925L794.098 23.6496H798.453V50H787.483ZM853 50.7916C849.834 50.7916 846.912 50.2827 844.236 49.2649C841.559 48.2471 839.222 46.8146 837.224 44.9674C835.264 43.0826 833.737 40.8961 832.644 38.4081C831.551 35.9201 831.004 33.187 831.004 30.209C831.004 27.2309 831.551 24.4978 832.644 22.0098C833.737 19.5218 835.264 17.3542 837.224 15.507C839.222 13.6222 841.559 12.1708 844.236 11.153C846.912 10.1352 849.834 9.62626 853 9.62626C856.205 9.62626 859.126 10.1352 861.765 11.153C864.441 12.1708 866.76 13.6222 868.72 15.507C870.68 17.3542 872.207 19.5218 873.3 22.0098C874.431 24.4978 874.997 27.2309 874.997 30.209C874.997 33.187 874.431 35.9389 873.3 38.4646C872.207 40.9527 870.68 43.1203 868.72 44.9674C866.76 46.8146 864.441 48.2471 861.765 49.2649C859.126 50.2827 856.205 50.7916 853 50.7916ZM853 41.5181C854.508 41.5181 855.903 41.2542 857.185 40.7265C858.504 40.1987 859.635 39.4448 860.577 38.4646C861.558 37.4468 862.311 36.2405 862.839 34.8457C863.405 33.4509 863.687 31.9053 863.687 30.209C863.687 28.4749 863.405 26.9293 862.839 25.5722C862.311 24.1774 861.558 22.9899 860.577 22.0098C859.635 20.992 858.504 20.2192 857.185 19.6914C855.903 19.1637 854.508 18.8998 853 18.8998C851.492 18.8998 850.079 19.1637 848.759 19.6914C847.478 20.2192 846.347 20.992 845.367 22.0098C844.424 22.9899 843.67 24.1774 843.105 25.5722C842.577 26.9293 842.313 28.4749 842.313 30.209C842.313 31.9053 842.577 33.4509 843.105 34.8457C843.67 36.2405 844.424 37.4468 845.367 38.4646C846.347 39.4448 847.478 40.1987 848.759 40.7265C850.079 41.2542 851.492 41.5181 853 41.5181ZM894.771 50.7916C891.529 50.7916 888.4 50.3958 885.384 49.6042C882.406 48.7748 879.975 47.7193 878.09 46.4376L881.765 38.1819C883.537 39.3128 885.573 40.2553 887.872 41.0092C890.209 41.7255 892.528 42.0836 894.827 42.0836C896.373 42.0836 897.617 41.9516 898.559 41.6878C899.502 41.3862 900.18 41.0092 900.595 40.5568C901.047 40.0668 901.274 39.5013 901.274 38.8605C901.274 37.9557 900.859 37.2395 900.03 36.7117C899.2 36.184 898.126 35.7504 896.806 35.4112C895.487 35.0719 894.017 34.7326 892.396 34.3933C890.813 34.0541 889.21 33.6206 887.59 33.0928C886.006 32.565 884.555 31.8865 883.235 31.0571C881.916 30.1901 880.842 29.078 880.012 27.7209C879.183 26.3261 878.768 24.5732 878.768 22.4622C878.768 20.0872 879.409 17.9385 880.691 16.0159C882.01 14.0934 883.971 12.5478 886.572 11.3792C889.173 10.2106 892.415 9.62626 896.298 9.62626C898.899 9.62626 901.443 9.92784 903.931 10.531C906.457 11.0965 908.7 11.9446 910.66 13.0756L907.211 21.3878C905.326 20.37 903.46 19.616 901.613 19.126C899.766 18.5982 897.975 18.3343 896.241 18.3343C894.695 18.3343 893.451 18.504 892.509 18.8432C891.567 19.1448 890.888 19.5595 890.473 20.0872C890.059 20.615 889.851 21.2182 889.851 21.8967C889.851 22.7637 890.247 23.4611 891.039 23.9889C891.868 24.479 892.943 24.8936 894.262 25.2329C895.619 25.5345 897.089 25.8549 898.672 26.1942C900.293 26.5335 901.896 26.967 903.479 27.4948C905.1 27.9848 906.57 28.6634 907.889 29.5304C909.209 30.3597 910.264 31.4718 911.056 32.8666C911.885 34.2237 912.3 35.9389 912.3 38.0123C912.3 40.3118 911.64 42.4417 910.321 44.402C909.039 46.3245 907.098 47.8701 904.497 49.0387C901.933 50.2073 898.691 50.7916 894.771 50.7916Z" fill="white"/>
<path d="M9.3287 101.417V81.9418H15.6297V101.417H9.3287ZM2.37309 94.6665V88.6928H22.5444V94.6665H2.37309Z" fill="white"/>
<path d="M47.2323 89.9203H60.4479V96.1803H47.2323V89.9203ZM47.8051 106H39.7039V77.3593H62.1664V83.6193H47.8051V106ZM73.4018 88.4473H86.6993V94.5028H73.4018V88.4473ZM73.9746 99.74H88.9496V106H65.9552V77.3593H88.4177V83.6193H73.9746V99.74ZM93.4452 106V77.3593H106.538C109.157 77.3593 111.407 77.7821 113.289 78.6276C115.199 79.4732 116.671 80.7007 117.708 82.31C118.745 83.8921 119.263 85.7742 119.263 87.9563C119.263 90.1112 118.745 91.9797 117.708 93.5617C116.671 95.1165 115.199 96.3167 113.289 97.1623C111.407 97.9806 109.157 98.3897 106.538 98.3897H97.9459L101.546 94.9938V106H93.4452ZM111.162 106L104.042 95.5666H112.675L119.836 106H111.162ZM101.546 95.853L97.9459 92.1297H106.047C107.738 92.1297 108.993 91.7615 109.811 91.025C110.657 90.2885 111.08 89.2656 111.08 87.9563C111.08 86.6198 110.657 85.5832 109.811 84.8468C108.993 84.1103 107.738 83.7421 106.047 83.7421H97.9459L101.546 80.0188V95.853ZM123.732 106V77.3593H136.825C139.444 77.3593 141.694 77.7821 143.576 78.6276C145.485 79.4732 146.958 80.7007 147.995 82.31C149.031 83.8921 149.55 85.7742 149.55 87.9563C149.55 90.1112 149.031 91.9797 147.995 93.5617C146.958 95.1165 145.485 96.3167 143.576 97.1623C141.694 97.9806 139.444 98.3897 136.825 98.3897H128.233L131.833 94.9938V106H123.732ZM141.448 106L134.329 95.5666H142.962L150.123 106H141.448ZM131.833 95.853L128.233 92.1297H136.334C138.025 92.1297 139.28 91.7615 140.098 91.025C140.944 90.2885 141.367 89.2656 141.367 87.9563C141.367 86.6198 140.944 85.5832 140.098 84.8468C139.28 84.1103 138.025 83.7421 136.334 83.7421H128.233L131.833 80.0188V95.853ZM150.582 106L163.225 77.3593H171.204L183.887 106H175.459L165.557 81.328H168.749L158.847 106H150.582ZM157.497 100.436L159.584 94.4619H173.577L175.663 100.436H157.497ZM186.184 106V77.3593H192.853L204.719 96.835H201.2L212.738 77.3593H219.407L219.489 106H212.042L211.961 88.6928H213.229L204.596 103.177H200.995L192.117 88.6928H193.671V106H186.184ZM232.668 88.4473H245.965V94.5028H232.668V88.4473ZM233.241 99.74H248.216V106H225.221V77.3593H247.684V83.6193H233.241V99.74ZM252.711 106V77.3593H259.381L275.174 96.4258H272.023V77.3593H279.961V106H273.292L257.498 86.9335H260.649V106H252.711ZM291.772 106V83.783H282.975V77.3593H308.629V83.783H299.873V106H291.772ZM306.772 106L319.415 77.3593H327.393L340.077 106H331.648L321.747 81.328H324.938L315.037 106H306.772ZM313.686 100.436L315.773 94.4619H329.766L331.853 100.436H313.686ZM352.439 106.573C350.093 106.573 347.829 106.286 345.647 105.714C343.492 105.114 341.732 104.35 340.369 103.422L343.028 97.4487C344.31 98.267 345.783 98.9489 347.447 99.4945C349.138 100.013 350.816 100.272 352.48 100.272C353.598 100.272 354.498 100.176 355.18 99.9854C355.862 99.7672 356.353 99.4945 356.653 99.1671C356.98 98.8125 357.144 98.4034 357.144 97.9397C357.144 97.285 356.844 96.7668 356.244 96.3849C355.644 96.003 354.866 95.6893 353.912 95.4438C352.957 95.1983 351.893 94.9529 350.72 94.7074C349.575 94.4619 348.415 94.1482 347.242 93.7663C346.097 93.3844 345.047 92.8935 344.092 92.2934C343.137 91.666 342.36 90.8613 341.76 89.8794C341.16 88.8701 340.86 87.6017 340.86 86.0742C340.86 84.3558 341.323 82.801 342.251 81.4099C343.205 80.0188 344.624 78.9004 346.506 78.0548C348.388 77.2092 350.734 76.7864 353.543 76.7864C355.425 76.7864 357.267 77.0047 359.067 77.4411C360.895 77.8502 362.517 78.464 363.936 79.2823L361.44 85.2968C360.076 84.5604 358.726 84.0148 357.389 83.6602C356.053 83.2783 354.757 83.0874 353.502 83.0874C352.384 83.0874 351.484 83.2102 350.802 83.4556C350.12 83.6739 349.629 83.9739 349.329 84.3558C349.029 84.7377 348.879 85.1741 348.879 85.6651C348.879 86.2924 349.165 86.7971 349.738 87.1789C350.338 87.5335 351.116 87.8336 352.07 88.0791C353.052 88.2973 354.116 88.5291 355.262 88.7746C356.435 89.0201 357.594 89.3338 358.74 89.7157C359.913 90.0703 360.976 90.5613 361.931 91.1886C362.886 91.7887 363.649 92.5934 364.222 93.6027C364.822 94.5846 365.122 95.8257 365.122 97.3259C365.122 98.9898 364.645 100.531 363.69 101.949C362.763 103.341 361.358 104.459 359.476 105.304C357.621 106.15 355.275 106.573 352.439 106.573ZM388.218 88.4473H401.516V94.5028H388.218V88.4473ZM388.791 99.74H403.766V106H380.772V77.3593H403.234V83.6193H388.791V99.74ZM405.076 106L417.596 88.611L417.555 94.38L405.526 77.3593H414.65L422.342 88.4473L418.455 88.4882L426.025 77.3593H434.78L422.751 94.0527V88.3246L435.435 106H426.106L418.292 94.3391H422.015L414.323 106H405.076ZM451.43 106.573C449.166 106.573 447.065 106.218 445.129 105.509C443.219 104.773 441.555 103.736 440.137 102.399C438.746 101.063 437.655 99.4945 436.864 97.6942C436.073 95.8666 435.677 93.8618 435.677 91.6796C435.677 89.4975 436.073 87.5063 436.864 85.706C437.655 83.8784 438.746 82.2964 440.137 80.9598C441.555 79.6232 443.219 78.6004 445.129 77.8912C447.065 77.1547 449.166 76.7864 451.43 76.7864C454.075 76.7864 456.435 77.2502 458.508 78.1776C460.608 79.105 462.354 80.4415 463.745 82.1873L458.59 86.8516C457.662 85.7605 456.639 84.9286 455.521 84.3558C454.43 83.783 453.203 83.4966 451.839 83.4966C450.666 83.4966 449.588 83.6875 448.606 84.0694C447.624 84.4513 446.779 85.0104 446.07 85.7469C445.388 86.4561 444.842 87.3153 444.433 88.3246C444.051 89.3338 443.86 90.4522 443.86 91.6796C443.86 92.9071 444.051 94.0254 444.433 95.0347C444.842 96.0439 445.388 96.9168 446.07 97.6533C446.779 98.3625 447.624 98.908 448.606 99.2899C449.588 99.6718 450.666 99.8627 451.839 99.8627C453.203 99.8627 454.43 99.5763 455.521 99.0035C456.639 98.4307 457.662 97.5987 458.59 96.5076L463.745 101.172C462.354 102.89 460.608 104.227 458.508 105.182C456.435 106.109 454.075 106.573 451.43 106.573ZM467.357 106V77.3593H475.458V99.5763H489.124V106H467.357ZM505.266 106.573C501.038 106.573 497.737 105.414 495.364 103.095C492.991 100.776 491.805 97.4896 491.805 93.2344V77.3593H499.906V92.9889C499.906 95.4438 500.383 97.2032 501.338 98.267C502.32 99.3308 503.656 99.8627 505.348 99.8627C507.039 99.8627 508.362 99.3308 509.316 98.267C510.271 97.2032 510.748 95.4438 510.748 92.9889V77.3593H518.727V93.2344C518.727 97.4896 517.54 100.776 515.167 103.095C512.794 105.414 509.494 106.573 505.266 106.573ZM534.28 106.573C531.934 106.573 529.67 106.286 527.488 105.714C525.333 105.114 523.574 104.35 522.21 103.422L524.87 97.4487C526.152 98.267 527.625 98.9489 529.289 99.4945C530.98 100.013 532.657 100.272 534.321 100.272C535.439 100.272 536.34 100.176 537.022 99.9854C537.703 99.7672 538.194 99.4945 538.494 99.1671C538.822 98.8125 538.985 98.4034 538.985 97.9397C538.985 97.285 538.685 96.7668 538.085 96.3849C537.485 96.003 536.708 95.6893 535.753 95.4438C534.798 95.1983 533.735 94.9529 532.562 94.7074C531.416 94.4619 530.257 94.1482 529.084 93.7663C527.938 93.3844 526.888 92.8935 525.933 92.2934C524.979 91.666 524.201 90.8613 523.601 89.8794C523.001 88.8701 522.701 87.6017 522.701 86.0742C522.701 84.3558 523.165 82.801 524.092 81.4099C525.047 80.0188 526.465 78.9004 528.347 78.0548C530.23 77.2092 532.575 76.7864 535.385 76.7864C537.267 76.7864 539.108 77.0047 540.908 77.4411C542.736 77.8502 544.359 78.464 545.777 79.2823L543.282 85.2968C541.918 84.5604 540.568 84.0148 539.231 83.6602C537.894 83.2783 536.599 83.0874 535.344 83.0874C534.226 83.0874 533.326 83.2102 532.644 83.4556C531.962 83.6739 531.471 83.9739 531.171 84.3558C530.871 84.7377 530.721 85.1741 530.721 85.6651C530.721 86.2924 531.007 86.7971 531.58 87.1789C532.18 87.5335 532.957 87.8336 533.912 88.0791C534.894 88.2973 535.958 88.5291 537.103 88.7746C538.276 89.0201 539.436 89.3338 540.581 89.7157C541.754 90.0703 542.818 90.5613 543.773 91.1886C544.727 91.7887 545.491 92.5934 546.064 93.6027C546.664 94.5846 546.964 95.8257 546.964 97.3259C546.964 98.9898 546.487 100.531 545.532 101.949C544.605 103.341 543.2 104.459 541.318 105.304C539.463 106.15 537.117 106.573 534.28 106.573ZM550.706 106V77.3593H558.807V106H550.706ZM573.288 106L561.054 77.3593H569.81L580.121 102.154H574.965L585.522 77.3593H593.541L581.266 106H573.288ZM590.782 106L603.425 77.3593H611.403L624.087 106H615.658L605.757 81.328H608.948L599.047 106H590.782ZM597.696 100.436L599.783 94.4619H613.776L615.863 100.436H597.696ZM636.449 106.573C634.103 106.573 631.839 106.286 629.657 105.714C627.502 105.114 625.742 104.35 624.379 103.422L627.038 97.4487C628.32 98.267 629.793 98.9489 631.457 99.4945C633.148 100.013 634.826 100.272 636.49 100.272C637.608 100.272 638.508 100.176 639.19 99.9854C639.872 99.7672 640.363 99.4945 640.663 99.1671C640.99 98.8125 641.154 98.4034 641.154 97.9397C641.154 97.285 640.854 96.7668 640.254 96.3849C639.654 96.003 638.876 95.6893 637.922 95.4438C636.967 95.1983 635.903 94.9529 634.73 94.7074C633.585 94.4619 632.425 94.1482 631.252 93.7663C630.107 93.3844 629.057 92.8935 628.102 92.2934C627.147 91.666 626.37 90.8613 625.77 89.8794C625.17 88.8701 624.87 87.6017 624.87 86.0742C624.87 84.3558 625.333 82.801 626.261 81.4099C627.215 80.0188 628.634 78.9004 630.516 78.0548C632.398 77.2092 634.744 76.7864 637.553 76.7864C639.435 76.7864 641.277 77.0047 643.077 77.4411C644.904 77.8502 646.527 78.464 647.946 79.2823L645.45 85.2968C644.086 84.5604 642.736 84.0148 641.399 83.6602C640.063 83.2783 638.767 83.0874 637.512 83.0874C636.394 83.0874 635.494 83.2102 634.812 83.4556C634.13 83.6739 633.639 83.9739 633.339 84.3558C633.039 84.7377 632.889 85.1741 632.889 85.6651C632.889 86.2924 633.175 86.7971 633.748 87.1789C634.348 87.5335 635.126 87.8336 636.08 88.0791C637.062 88.2973 638.126 88.5291 639.272 88.7746C640.445 89.0201 641.604 89.3338 642.75 89.7157C643.923 90.0703 644.986 90.5613 645.941 91.1886C646.896 91.7887 647.659 92.5934 648.232 93.6027C648.832 94.5846 649.132 95.8257 649.132 97.3259C649.132 98.9898 648.655 100.531 647.7 101.949C646.773 103.341 645.368 104.459 643.486 105.304C641.631 106.15 639.285 106.573 636.449 106.573Z" fill="url(#paint0_linear_243_2)"/>
<defs>
<linearGradient id="paint0_linear_243_2" x1="0" y1="91" x2="651" y2="91" gradientUnits="userSpaceOnUse">
<stop stop-color="#00A1FF"/>
<stop offset="1" stop-color="#0074C7"/>
</linearGradient>
</defs>
</svg>
